<svg width="13" height="91" fill="none" xmlns="http://www.w3.org/2000/svg"><path d="M8.496 88.376c.373-.021.683-.059.928-.112.245-.064.443-.16.592-.288.15-.139.256-.315.32-.528.064-.213.096-.49.096-.832 0-.619-.107-1.05-.32-1.296-.213-.245-.592-.368-1.136-.368a1.55 1.55 0 0 0-.576.096.867.867 0 0 0-.4.272 1.668 1.668 0 0 0-.304.512 5.25 5.25 0 0 0-.24.752l-.224.88a7.94 7.94 0 0 1-.448 1.296 3.1 3.1 0 0 1-.656.928 2.664 2.664 0 0 1-.976.56c-.384.128-.848.192-1.392.192a4.78 4.78 0 0 1-1.408-.192 2.655 2.655 0 0 1-1.056-.64c-.288-.299-.507-.688-.656-1.168-.15-.48-.224-1.067-.224-1.76 0-.736.075-1.344.224-1.824.15-.49.379-.88.688-1.168.31-.288.704-.49 1.184-.608.47-.128 1.03-.203 1.68-.224v2.128a4.552 4.552 0 0 0-.912.128c-.235.053-.416.144-.544.272a.963.963 0 0 0-.256.496c-.053.203-.08.459-.08.768 0 .544.101.944.304 1.2.192.256.533.384 1.024.384.256 0 .47-.027.64-.08.16-.064.299-.16.416-.288a1.91 1.91 0 0 0 .304-.528c.075-.213.15-.475.224-.784l.224-.88c.245-.981.624-1.717 1.136-2.208.512-.49 1.259-.736 2.24-.736.533 0 1.003.07 1.408.208.405.139.747.363 1.024.672.277.31.49.715.64 1.216.139.501.208 1.11.208 1.824 0 .704-.064 1.296-.192 1.776-.139.48-.352.875-.64 1.184-.299.299-.683.523-1.152.672-.47.139-1.04.224-1.712.256v-2.16Zm3.632-11.802c0 .65-.075 1.195-.224 1.632-.15.438-.39.79-.72 1.056-.33.256-.757.443-1.28.56-.533.107-1.179.16-1.936.16-.768 0-1.419-.058-1.952-.176-.533-.128-.96-.325-1.28-.592a2.16 2.16 0 0 1-.704-1.04c-.15-.437-.224-.97-.224-1.6 0-.587.07-1.072.208-1.456a2.07 2.07 0 0 1 .64-.944c.277-.245.63-.421 1.056-.528.416-.106.907-.17 1.472-.192v1.952c-.31.021-.565.053-.768.096a1.11 1.11 0 0 0-.48.208.637.637 0 0 0-.24.352c-.053.139-.08.315-.08.528 0 .256.027.464.08.624.053.16.17.288.352.384.17.085.416.144.736.176s.741.048 1.264.048c.533 0 .965-.016 1.296-.048.32-.032.57-.09.752-.176a.688.688 0 0 0 .336-.384c.053-.16.08-.368.08-.624a1.55 1.55 0 0 0-.08-.544.69.69 0 0 0-.272-.352 1.429 1.429 0 0 0-.512-.192 6.929 6.929 0 0 0-.816-.096v-1.952c1.152.053 1.99.32 2.512.8.523.48.784 1.253.784 2.32ZM6.72 70.657c-.981 0-1.69-.213-2.128-.64-.437-.437-.656-1.152-.656-2.144v-1.344H5.68v1.056c0 .341.075.587.224.736.15.15.395.224.736.224H12v2.112H6.72Zm5.408-9.91c0 .651-.07 1.2-.208 1.649a2.306 2.306 0 0 1-.688 1.072c-.33.266-.757.458-1.28.576-.533.117-1.195.176-1.984.176-.8 0-1.467-.059-2-.176-.533-.128-.96-.326-1.28-.592a2.2 2.2 0 0 1-.672-1.072c-.139-.448-.208-.992-.208-1.632 0-.64.075-1.179.224-1.616.139-.448.373-.806.704-1.072.32-.278.747-.475 1.28-.592.523-.128 1.173-.192 1.952-.192.79 0 1.45.058 1.984.176.523.117.95.314 1.28.592.32.266.55.624.688 1.072.139.437.208.981.208 1.632Zm-1.616 0c0-.255-.027-.469-.08-.64a.745.745 0 0 0-.368-.4c-.181-.106-.437-.175-.768-.207a11.131 11.131 0 0 0-1.328-.064 9.05 9.05 0 0 0-1.216.064c-.31.032-.55.101-.72.208a.685.685 0 0 0-.336.4c-.053.17-.08.384-.08.64s.027.469.08.64a.75.75 0 0 0 .336.416c.17.096.41.165.72.208.299.042.704.064 1.216.064.555 0 .997-.022 1.328-.064.33-.043.587-.112.768-.208a.812.812 0 0 0 .368-.416 2.19 2.19 0 0 0 .08-.64ZM.608 54.363V52.25H12v2.112H.608Zm0-5.35V46.9H12v2.112H.608Zm11.52-12.48c0 .523-.064.97-.192 1.344a1.96 1.96 0 0 1-.688.896c-.32.235-.747.41-1.28.528-.533.107-1.2.16-2 .16-.79 0-1.45-.064-1.984-.192-.533-.128-.96-.314-1.28-.56a2.137 2.137 0 0 1-.688-.96c-.139-.384-.208-.832-.208-1.344 0-.373.064-.71.192-1.008.117-.298.347-.544.688-.736H.608v-2.112H12v2.016h-1.04c.448.192.757.459.928.8.16.33.24.72.24 1.168Zm-1.616-.544c0-.245-.027-.453-.08-.624a.745.745 0 0 0-.368-.4c-.181-.106-.437-.181-.768-.224a8.725 8.725 0 0 0-1.328-.08c-.512 0-.923.027-1.232.08-.31.043-.544.118-.704.224a.685.685 0 0 0-.336.4c-.053.17-.08.379-.08.624 0 .256.027.47.08.64.053.17.165.304.336.4.17.096.41.166.72.208.299.043.704.064 1.216.064.544 0 .981-.021 1.312-.064.33-.042.587-.112.768-.208a.744.744 0 0 0 .368-.4c.064-.17.096-.384.096-.64Zm1.616-9.819c0 .651-.07 1.2-.208 1.648a2.307 2.307 0 0 1-.688 1.073c-.33.266-.757.458-1.28.575-.533.118-1.195.177-1.984.177-.8 0-1.467-.06-2-.177-.533-.128-.96-.325-1.28-.591a2.2 2.2 0 0 1-.672-1.072c-.139-.448-.208-.992-.208-1.633 0-.64.075-1.178.224-1.616.139-.448.373-.805.704-1.072.32-.277.747-.474 1.28-.591.523-.128 1.173-.192 1.952-.192.79 0 1.45.058 1.984.175.523.118.95.315 1.28.592.32.267.55.625.688 1.073.139.437.208.98.208 1.631Zm-1.616 0a2.19 2.19 0 0 0-.08-.64.744.744 0 0 0-.368-.4c-.181-.106-.437-.176-.768-.207a11.11 11.11 0 0 0-1.328-.064c-.512 0-.917.02-1.216.064-.31.031-.55.1-.72.207a.685.685 0 0 0-.336.4c-.053.171-.08.384-.08.64s.027.47.08.64c.053.171.165.31.336.416.17.096.41.166.72.208.299.043.704.064 1.216.064.555 0 .997-.02 1.328-.064.33-.042.587-.111.768-.207a.813.813 0 0 0 .368-.416 2.19 2.19 0 0 0 .08-.64Zm-6.576-5.477V18.5l5.248-1.328-5.248-1.504v-1.664l5.248-1.488-5.248-1.344V9.268L12 11.636v1.952l-4.48 1.424L12 16.34v2l-8.064 2.352Zm0-13.883V4.793h.944c-.715-.277-1.072-.923-1.072-1.936 0-.917.25-1.568.752-1.952C5.061.521 5.797.329 6.768.329H12v2.128H7.232c-.619 0-1.035.08-1.248.24-.224.16-.336.448-.336.864 0 .224.027.41.08.56.043.139.128.25.256.336.117.085.277.15.48.192.203.032.459.048.768.048H12v2.112H3.936Z" fill="#EFEFEF"/></svg>