<svg width="15" height="15" fill="none" xmlns="http://www.w3.org/2000/svg"><path d="M5.25 0H1.5C.675 0 0 .675 0 1.5v3.75c0 .825.675 1.5 1.5 1.5h3.75c.825 0 1.5-.675 1.5-1.5V1.5c0-.825-.675-1.5-1.5-1.5Zm0 3.75H1.5V3h3.75v.75Zm8.25 4.5H9.75c-.825 0-1.5.675-1.5 1.5v3.75c0 .825.675 1.5 1.5 1.5h3.75c.825 0 1.5-.675 1.5-1.5V9.75c0-.825-.675-1.5-1.5-1.5Zm0 4.5H9.75V12h3.75v.75Zm0-1.5H9.75v-.75h3.75v.75ZM13.5 0H9.75c-.825 0-1.5.675-1.5 1.5v3.75c0 .825.675 1.5 1.5 1.5h3.75c.825 0 1.5-.675 1.5-1.5V1.5c0-.825-.675-1.5-1.5-1.5Zm0 3.75H12v1.5h-.75v-1.5h-1.5V3h1.5V1.5H12V3h1.5v.75Zm-8.25 4.5H1.5c-.825 0-1.5.675-1.5 1.5v3.75c0 .825.675 1.5 1.5 1.5h3.75c.825 0 1.5-.675 1.5-1.5V9.75c0-.825-.675-1.5-1.5-1.5Zm-.3 4.425-.525.525-1.05-1.05-1.05 1.05-.525-.525 1.05-1.05-1.05-1.05.525-.525 1.05 1.05 1.05-1.05.525.525-1.05 1.05 1.05 1.05Z" fill="#FD2016"/></svg>