<svg width="13" height="91" viewBox="0 0 13 91" fill="none" xmlns="http://www.w3.org/2000/svg">
<path d="M8.496 88.376C8.86933 88.3547 9.17867 88.3173 9.424 88.264C9.66933 88.2 9.86667 88.104 10.016 87.976C10.1653 87.8373 10.272 87.6613 10.336 87.448C10.4 87.2347 10.432 86.9573 10.432 86.616C10.432 85.9973 10.3253 85.5653 10.112 85.32C9.89867 85.0747 9.52 84.952 8.976 84.952C8.752 84.952 8.56 84.984 8.4 85.048C8.24 85.1013 8.10667 85.192 8 85.32C7.88267 85.448 7.78133 85.6187 7.696 85.832C7.61067 86.0347 7.53067 86.2853 7.456 86.584L7.232 87.464C7.104 87.9547 6.95467 88.3867 6.784 88.76C6.61333 89.1227 6.39467 89.432 6.128 89.688C5.86133 89.9333 5.536 90.12 5.152 90.248C4.768 90.376 4.304 90.44 3.76 90.44C3.23733 90.44 2.768 90.376 2.352 90.248C1.936 90.1093 1.584 89.896 1.296 89.608C1.008 89.3093 0.789333 88.92 0.639999 88.44C0.490666 87.96 0.415999 87.3733 0.415999 86.68C0.415999 85.944 0.490666 85.336 0.639999 84.856C0.789332 84.3653 1.01867 83.976 1.328 83.688C1.63733 83.4 2.032 83.1973 2.512 83.08C2.98133 82.952 3.54133 82.8773 4.192 82.856L4.192 84.984C3.81867 85.0053 3.51467 85.048 3.28 85.112C3.04533 85.1653 2.864 85.256 2.736 85.384C2.608 85.512 2.52267 85.6773 2.48 85.88C2.42667 86.0827 2.4 86.3387 2.4 86.648C2.4 87.192 2.50133 87.592 2.704 87.848C2.896 88.104 3.23733 88.232 3.728 88.232C3.984 88.232 4.19733 88.2053 4.368 88.152C4.528 88.088 4.66667 87.992 4.784 87.864C4.90133 87.7253 5.00267 87.5493 5.088 87.336C5.16267 87.1227 5.23733 86.8613 5.312 86.552L5.536 85.672C5.78133 84.6907 6.16 83.9547 6.672 83.464C7.184 82.9733 7.93067 82.728 8.912 82.728C9.44533 82.728 9.91467 82.7973 10.32 82.936C10.7253 83.0747 11.0667 83.2987 11.344 83.608C11.6213 83.9173 11.8347 84.3227 11.984 84.824C12.1227 85.3253 12.192 85.9333 12.192 86.648C12.192 87.352 12.128 87.944 12 88.424C11.8613 88.904 11.648 89.2987 11.36 89.608C11.0613 89.9067 10.6773 90.1307 10.208 90.28C9.73867 90.4187 9.168 90.504 8.496 90.536L8.496 88.376ZM12.128 76.5741C12.128 77.2248 12.0533 77.7688 11.904 78.2061C11.7547 78.6435 11.5147 78.9955 11.184 79.2621C10.8533 79.5181 10.4267 79.7048 9.904 79.8221C9.37067 79.9288 8.72533 79.9821 7.968 79.9821C7.2 79.9821 6.54933 79.9235 6.016 79.8061C5.48267 79.6781 5.056 79.4808 4.736 79.2141C4.40533 78.9475 4.17067 78.6008 4.032 78.1741C3.88267 77.7368 3.808 77.2035 3.808 76.5741C3.808 75.9875 3.87733 75.5021 4.016 75.1181C4.15467 74.7235 4.368 74.4088 4.656 74.1741C4.93333 73.9288 5.28533 73.7528 5.712 73.6461C6.128 73.5395 6.61867 73.4755 7.184 73.4541L7.184 75.4061C6.87467 75.4275 6.61867 75.4595 6.416 75.5021C6.21333 75.5448 6.05333 75.6141 5.936 75.7101C5.81867 75.7955 5.73867 75.9128 5.696 76.0621C5.64267 76.2008 5.616 76.3768 5.616 76.5901C5.616 76.8461 5.64267 77.0541 5.696 77.2141C5.74933 77.3741 5.86667 77.5021 6.048 77.5981C6.21867 77.6835 6.464 77.7421 6.784 77.7741C7.104 77.8061 7.52533 77.8221 8.048 77.8221C8.58133 77.8221 9.01333 77.8061 9.344 77.7741C9.664 77.7421 9.91467 77.6835 10.096 77.5981C10.2667 77.5021 10.3787 77.3741 10.432 77.2141C10.4853 77.0541 10.512 76.8461 10.512 76.5901C10.512 76.3661 10.4853 76.1848 10.432 76.0461C10.3787 75.8968 10.288 75.7795 10.16 75.6941C10.032 75.6088 9.86133 75.5448 9.648 75.5021C9.424 75.4595 9.152 75.4275 8.832 75.4061L8.832 73.4541C9.984 73.5075 10.8213 73.7741 11.344 74.2541C11.8667 74.7341 12.128 75.5075 12.128 76.5741ZM6.72 70.657C5.73867 70.657 5.02933 70.4437 4.592 70.017C4.15467 69.5797 3.936 68.865 3.936 67.873L3.936 66.529L5.68 66.529L5.68 67.585C5.68 67.9263 5.75467 68.1717 5.904 68.321C6.05333 68.4703 6.29867 68.545 6.64 68.545L12 68.545L12 70.657L6.72 70.657ZM12.128 60.7476C12.128 61.3983 12.0587 61.9476 11.92 62.3956C11.7813 62.833 11.552 63.1903 11.232 63.4676C10.9013 63.7343 10.4747 63.9263 9.952 64.0436C9.41867 64.161 8.75733 64.2196 7.968 64.2196C7.168 64.2196 6.50133 64.161 5.968 64.0436C5.43467 63.9156 5.008 63.7183 4.688 63.4516C4.368 63.1743 4.144 62.817 4.016 62.3796C3.87733 61.9316 3.808 61.3876 3.808 60.7476C3.808 60.1076 3.88266 59.569 4.032 59.1316C4.17066 58.6836 4.40533 58.3263 4.736 58.0596C5.056 57.7823 5.48266 57.585 6.016 57.4676C6.53866 57.3396 7.18933 57.2756 7.968 57.2756C8.75733 57.2756 9.41867 57.3343 9.952 57.4516C10.4747 57.569 10.9013 57.7663 11.232 58.0436C11.552 58.3103 11.7813 58.6676 11.92 59.1156C12.0587 59.553 12.128 60.097 12.128 60.7476ZM10.512 60.7476C10.512 60.4916 10.4853 60.2783 10.432 60.1076C10.368 59.937 10.2453 59.8036 10.064 59.7076C9.88267 59.601 9.62667 59.5316 9.296 59.4996C8.95467 59.457 8.512 59.4356 7.968 59.4356C7.456 59.4356 7.05067 59.457 6.752 59.4996C6.44266 59.5316 6.20266 59.601 6.032 59.7076C5.86133 59.8036 5.74933 59.937 5.696 60.1076C5.64266 60.2783 5.616 60.4916 5.616 60.7476C5.616 61.0036 5.64267 61.217 5.696 61.3876C5.74933 61.5583 5.86133 61.697 6.032 61.8036C6.20267 61.8996 6.44267 61.969 6.752 62.0116C7.05067 62.0543 7.456 62.0756 7.968 62.0756C8.52267 62.0756 8.96533 62.0543 9.296 62.0116C9.62667 61.969 9.88267 61.8996 10.064 61.8036C10.2453 61.697 10.368 61.5583 10.432 61.3876C10.4853 61.217 10.512 61.0036 10.512 60.7476ZM0.607998 54.3621L0.607998 52.2501L12 52.2501L12 54.3621L0.607998 54.3621ZM0.607998 49.0121L0.607998 46.9001L12 46.9001L12 49.0121L0.607998 49.0121ZM12.128 36.5322C12.128 37.0549 12.064 37.5029 11.936 37.8762C11.7973 38.2389 11.568 38.5376 11.248 38.7722C10.928 39.0069 10.5013 39.1829 9.968 39.3002C9.43466 39.4069 8.768 39.4602 7.968 39.4602C7.17866 39.4602 6.51733 39.3962 5.984 39.2682C5.45066 39.1402 5.024 38.9536 4.704 38.7082C4.384 38.4522 4.15466 38.1322 4.016 37.7482C3.87733 37.3642 3.808 36.9162 3.808 36.4042C3.808 36.0309 3.872 35.6949 4 35.3962C4.11733 35.0976 4.34666 34.8522 4.688 34.6602L0.607997 34.6602L0.607997 32.5482L12 32.5482L12 34.5642L10.96 34.5642C11.408 34.7562 11.7173 35.0229 11.888 35.3642C12.048 35.6949 12.128 36.0842 12.128 36.5322ZM10.512 35.9882C10.512 35.7429 10.4853 35.5349 10.432 35.3642C10.368 35.1936 10.2453 35.0602 10.064 34.9642C9.88266 34.8576 9.62666 34.7829 9.296 34.7402C8.96533 34.6869 8.52266 34.6602 7.968 34.6602C7.456 34.6602 7.04533 34.6869 6.736 34.7402C6.42666 34.7829 6.192 34.8576 6.032 34.9642C5.86133 35.0602 5.74933 35.1936 5.696 35.3642C5.64266 35.5349 5.616 35.7429 5.616 35.9882C5.616 36.2442 5.64266 36.4576 5.696 36.6282C5.74933 36.7989 5.86133 36.9322 6.032 37.0282C6.20266 37.1242 6.44266 37.1936 6.752 37.2362C7.05066 37.2789 7.456 37.3002 7.968 37.3002C8.512 37.3002 8.94933 37.2789 9.28 37.2362C9.61066 37.1936 9.86666 37.1242 10.048 37.0282C10.2293 36.9322 10.352 36.7989 10.416 36.6282C10.48 36.4576 10.512 36.2442 10.512 35.9882ZM12.128 26.1695C12.128 26.8202 12.0587 27.3695 11.92 27.8175C11.7813 28.2548 11.552 28.6122 11.232 28.8895C10.9013 29.1562 10.4747 29.3482 9.952 29.4655C9.41866 29.5828 8.75733 29.6415 7.968 29.6415C7.168 29.6415 6.50133 29.5828 5.968 29.4655C5.43466 29.3375 5.008 29.1402 4.688 28.8735C4.368 28.5962 4.144 28.2388 4.016 27.8015C3.87733 27.3535 3.808 26.8095 3.808 26.1695C3.808 25.5295 3.88266 24.9908 4.032 24.5535C4.17066 24.1055 4.40533 23.7482 4.736 23.4815C5.056 23.2042 5.48266 23.0068 6.016 22.8895C6.53866 22.7615 7.18933 22.6975 7.968 22.6975C8.75733 22.6975 9.41866 22.7562 9.952 22.8735C10.4747 22.9908 10.9013 23.1882 11.232 23.4655C11.552 23.7322 11.7813 24.0895 11.92 24.5375C12.0587 24.9748 12.128 25.5188 12.128 26.1695ZM10.512 26.1695C10.512 25.9135 10.4853 25.7002 10.432 25.5295C10.368 25.3588 10.2453 25.2255 10.064 25.1295C9.88266 25.0228 9.62666 24.9535 9.296 24.9215C8.95466 24.8788 8.512 24.8575 7.968 24.8575C7.456 24.8575 7.05066 24.8788 6.752 24.9215C6.44266 24.9535 6.20266 25.0228 6.032 25.1295C5.86133 25.2255 5.74933 25.3588 5.696 25.5295C5.64266 25.7002 5.616 25.9135 5.616 26.1695C5.616 26.4255 5.64266 26.6388 5.696 26.8095C5.74933 26.9802 5.86133 27.1188 6.032 27.2255C6.20266 27.3215 6.44266 27.3908 6.752 27.4335C7.05066 27.4762 7.456 27.4975 7.968 27.4975C8.52266 27.4975 8.96533 27.4762 9.296 27.4335C9.62666 27.3908 9.88266 27.3215 10.064 27.2255C10.2453 27.1188 10.368 26.9802 10.432 26.8095C10.4853 26.6388 10.512 26.4255 10.512 26.1695ZM3.936 20.6922L3.936 18.5002L9.184 17.1722L3.936 15.6682L3.936 14.0042L9.184 12.5162L3.936 11.1722L3.936 9.26825L12 11.6362L12 13.5882L7.52 15.0122L12 16.3402L12 18.3402L3.936 20.6922ZM3.936 6.809L3.936 4.793L4.88 4.793C4.16533 4.51567 3.808 3.87033 3.808 2.857C3.808 1.93967 4.05866 1.289 4.56 0.904999C5.06133 0.520999 5.79733 0.328999 6.768 0.328999L12 0.328999L12 2.457L7.232 2.457C6.61333 2.457 6.19733 2.537 5.984 2.697C5.76 2.857 5.648 3.145 5.648 3.561C5.648 3.785 5.67466 3.97167 5.728 4.121C5.77066 4.25967 5.856 4.37167 5.984 4.457C6.10133 4.54233 6.26133 4.60633 6.464 4.649C6.66666 4.681 6.92266 4.697 7.232 4.697L12 4.697L12 6.809L3.936 6.809Z" fill="#EFEFEF"/>
</svg>
